HIERARCHY
ROOT Hips
{
  OFFSET 5.84602e-005 68.8428 3.50346
  CHANNELS 6 Xposition Yposition Zposition Zrotation Xrotation Yrotation
  JOINT Spine
  {
    OFFSET 0 8.597 -4.6522
    CHANNELS 3 Zrotation Xrotation Yrotation
    JOINT Spine1
    {
      OFFSET 0 7.8454 0.4098
      CHANNELS 3 Zrotation Xrotation Yrotation
      JOINT Spine2
      {
        OFFSET 0 9.7078 -2.1609
        CHANNELS 3 Zrotation Xrotation Yrotation
        JOINT Neck
        {
          OFFSET 0 21.8761 -0.4549
          CHANNELS 3 Zrotation Xrotation Yrotation
          JOINT Head
          {
            OFFSET 0 12.3537 3.3602
            CHANNELS 3 Zrotation Xrotation Yrotation
            End Site
            {
              OFFSET 0.0001 18.9506 0.5657
            }
          }
        }
        JOINT LeftShoulder
        {
          OFFSET 2.2086 21.1115 7.2329
          CHANNELS 3 Zrotation Xrotation Yrotation
          JOINT LeftArm
          {
            OFFSET 13.1193 3.0282 -4.8998
            CHANNELS 3 Zrotation Xrotation Yrotation
            JOINT LeftForeArm
            {
              OFFSET 27.4081 -0.0973053 -0.2375
              CHANNELS 3 Zrotation Xrotation Yrotation
              JOINT LeftHand
              {
                OFFSET 22.8641 0.0662994 -0.1369
                CHANNELS 3 Zrotation Xrotation Yrotation
                JOINT LeftHandIndex1
                {
                  OFFSET 8.8614 0.775009 2.4612
                  CHANNELS 3 Zrotation Xrotation Yrotation
                  JOINT LeftHandIndex2
                  {
                    OFFSET 3.3146 -0.808304 0.5841
                    CHANNELS 3 Zrotation Xrotation Yrotation
                    JOINT LeftHandIndex3
                    {
                      OFFSET 2.2628 -0.552002 0.3989
                      CHANNELS 3 Zrotation Xrotation Yrotation
                      End Site
                      {
                        OFFSET 1.6102 -0.4807 0.2612
                      }
                    }
                  }
                }
                JOINT LeftHandMiddle1
                {
                  OFFSET 8.9937 0.895004 0.2143
                  CHANNELS 3 Zrotation Xrotation Yrotation
                  JOINT LeftHandMiddle2
                  {
                    OFFSET 4.0984 0.0113983 -0.0242
                    CHANNELS 3 Zrotation Xrotation Yrotation
                    JOINT LeftHandMiddle3
                    {
                      OFFSET 2.2716 0.00689697 -0.0138001
                      CHANNELS 3 Zrotation Xrotation Yrotation
                      End Site
                      {
                        OFFSET 2.0404 -0.1441 0.0027
                      }
                    }
                  }
                }
                JOINT LeftHandRing1
                {
                  OFFSET 8.5234 0.597198 -2.0164
                  CHANNELS 3 Zrotation Xrotation Yrotation
                  JOINT LeftHandRing2
                  {
                    OFFSET 3.7188 -0.188293 -0.2328
                    CHANNELS 3 Zrotation Xrotation Yrotation
                    JOINT LeftHandRing3
                    {
                      OFFSET 2.1191 -0.106598 -0.1332
                      CHANNELS 3 Zrotation Xrotation Yrotation
                      End Site
                      {
                        OFFSET 1.8737 -0.2304 -0.0886
                      }
                    }
                  }
                }
                JOINT LeftHandPinky1
                {
                  OFFSET 7.9094 -0.601089 -3.4825
                  CHANNELS 3 Zrotation Xrotation Yrotation
                  JOINT LeftHandPinky2
                  {
                    OFFSET 2.2874 -0.477005 -0.6314
                    CHANNELS 3 Zrotation Xrotation Yrotation
                    JOINT LeftHandPinky3
                    {
                      OFFSET 1.6774 -0.349396 -0.4633
                      CHANNELS 3 Zrotation Xrotation Yrotation
                      End Site
                      {
                        OFFSET 1.4888 -0.4091 -0.3416
                      }
                    }
                  }
                }
                JOINT LeftHandThumb1
                {
                  OFFSET 1.833 -1.3875 1.3896
                  CHANNELS 3 Zrotation Xrotation Yrotation
                  JOINT LeftHandThumb2
                  {
                    OFFSET 3.4129 -1.121 2.5732
                    CHANNELS 3 Zrotation Xrotation Yrotation
                    JOINT LeftHandThumb3
                    {
                      OFFSET 2.2474 -0.804199 1.6192
                      CHANNELS 3 Zrotation Xrotation Yrotation
                      End Site
                      {
                        OFFSET 1.6527 -0.5689 1.1317
                      }
                    }
                  }
                }
              }
            }
          }
        }
        JOINT RightShoulder
        {
          OFFSET -2.2086 21.1115 7.2329
          CHANNELS 3 Zrotation Xrotation Yrotation
          JOINT RightArm
          {
            OFFSET -13.1216 3.0287 -4.9007
            CHANNELS 3 Zrotation Xrotation Yrotation
            JOINT RightForeArm
            {
              OFFSET -27.4081 -0.0973053 -0.2375
              CHANNELS 3 Zrotation Xrotation Yrotation
              JOINT RightHand
              {
                OFFSET -22.8641 0.0664063 -0.1369
                CHANNELS 3 Zrotation Xrotation Yrotation
                JOINT RightHandIndex1
                {
                  OFFSET -8.8614 0.774994 2.4612
                  CHANNELS 3 Zrotation Xrotation Yrotation
                  JOINT RightHandIndex2
                  {
                    OFFSET -3.3146 -0.808304 0.5841
                    CHANNELS 3 Zrotation Xrotation Yrotation
                    JOINT RightHandIndex3
                    {
                      OFFSET -2.2628 -0.552002 0.3989
                      CHANNELS 3 Zrotation Xrotation Yrotation
                      End Site
                      {
                        OFFSET -1.6102 -0.4807 0.2612
                      }
                    }
                  }
                }
                JOINT RightHandMiddle1
                {
                  OFFSET -8.9937 0.894989 0.2143
                  CHANNELS 3 Zrotation Xrotation Yrotation
                  JOINT RightHandMiddle2
                  {
                    OFFSET -4.0984 0.0113983 -0.0242
                    CHANNELS 3 Zrotation Xrotation Yrotation
                    JOINT RightHandMiddle3
                    {
                      OFFSET -2.2716 0.00691223 -0.0138001
                      CHANNELS 3 Zrotation Xrotation Yrotation
                      End Site
                      {
                        OFFSET -2.0404 -0.1441 0.0027
                      }
                    }
                  }
                }
                JOINT RightHandRing1
                {
                  OFFSET -8.5234 0.597198 -2.0164
                  CHANNELS 3 Zrotation Xrotation Yrotation
                  JOINT RightHandRing2
                  {
                    OFFSET -3.7188 -0.188309 -0.2328
                    CHANNELS 3 Zrotation Xrotation Yrotation
                    JOINT RightHandRing3
                    {
                      OFFSET -2.1191 -0.106598 -0.1332
                      CHANNELS 3 Zrotation Xrotation Yrotation
                      End Site
                      {
                        OFFSET -1.8737 -0.2304 -0.0886
                      }
                    }
                  }
                }
                JOINT RightHandPinky1
                {
                  OFFSET -7.9094 -0.601105 -3.4825
                  CHANNELS 3 Zrotation Xrotation Yrotation
                  JOINT RightHandPinky2
                  {
                    OFFSET -2.2874 -0.477005 -0.6314
                    CHANNELS 3 Zrotation Xrotation Yrotation
                    JOINT RightHandPinky3
                    {
                      OFFSET -1.6774 -0.349396 -0.4633
                      CHANNELS 3 Zrotation Xrotation Yrotation
                      End Site
                      {
                        OFFSET -1.4888 -0.4091 -0.3416
                      }
                    }
                  }
                }
                JOINT RightHandThumb1
                {
                  OFFSET -1.833 -1.38751 1.3896
                  CHANNELS 3 Zrotation Xrotation Yrotation
                  JOINT RightHandThumb2
                  {
                    OFFSET -3.41299 -1.12099 2.5732
                    CHANNELS 3 Zrotation Xrotation Yrotation
                    JOINT RightHandThumb3
                    {
                      OFFSET -2.24741 -0.804108 1.6192
                      CHANNELS 3 Zrotation Xrotation Yrotation
                      End Site
                      {
                        OFFSET -1.6527 -0.5689 1.1317
                      }
                    }
                  }
                }
              }
            }
          }
        }
      }
    }
  }
  JOINT RightUpLeg
  {
    OFFSET -9.1966 3.8861 -0.7581
    CHANNELS 3 Zrotation Xrotation Yrotation
    JOINT RightLeg
    {
      OFFSET -0.7359 -41.0265 0
      CHANNELS 3 Zrotation Xrotation Yrotation
      JOINT RightFoot
      {
        OFFSET 0 -40.2855 0
        CHANNELS 3 Zrotation Xrotation Yrotation
        JOINT RightToeBase
        {
          OFFSET 0 -5.6122 11.7359
          CHANNELS 3 Zrotation Xrotation Yrotation
          End Site
          {
            OFFSET 0 0 7.8731
          }
        }
      }
    }
  }
  JOINT LeftUpLeg
  {
    OFFSET 9.1965 3.8864 -0.7581
    CHANNELS 3 Zrotation Xrotation Yrotation
    JOINT LeftLeg
    {
      OFFSET 0.7359 -41.0268 0
      CHANNELS 3 Zrotation Xrotation Yrotation
      JOINT LeftFoot
      {
        OFFSET 0 -40.2855 0
        CHANNELS 3 Zrotation Xrotation Yrotation
        JOINT LeftToeBase
        {
          OFFSET 0 -5.6122 11.7359
          CHANNELS 3 Zrotation Xrotation Yrotation
          End Site
          {
            OFFSET 0 0 7.8731
          }
        }
      }
    }
  }
}
MOTION
Frames:	6
Frame Time:	0.0333333
5.84602e-005 68.8428 3.50346 0 0 -0 0 0 -0 0 0 -0 0 0 -0 0 0 -0 0 0 -0 0 0 -0 0 0 -0 0 0 -0 0 0 -0 0 0 -0 0 0 -0 0 0 -0 0 0 -0 -0.0146107 -8.87603e-005 -2.63497e-007 2.99804e-018 -2.42657e-020 -1.42182e-022 0 0 -0 -0.0187562 -0.001176 5.858e-005 5.06224e-018 3.88251e-019 1.21329e-020 0 0 -0 -0.012269 -0.00324817 0.000675346 -1.74678e-018 3.88251e-019 -0 0 0 -0 0 0 -0 0 0 -0 0 0 -0 0 0 -0 0 0 -0 0 0 -0 0 0 -0 0 0 -0 0 0 -0 0 0 -0 0.0149955 -9.10982e-005 2.64101e-007 -9.69331e-018 1.21329e-020 -4.7394e-023 0 0 -0 0.0189956 -0.00119102 -5.96516e-005 -5.41541e-019 0 2.42657e-020 0 0 -0 0.0122698 -0.00324857 -0.000673756 -2.00796e-019 0 -1.94126e-019 0 0 -0 0 0 -0 0 0 -0 3.39842 1.33031 -0.0637918 -5.65207e-008 0.834868 -0.000436188 -3.39935 -2.16518 -0.0642563 -8.89002e-024 -1.18485e-023 -1.48106e-024 -3.39844 1.35642 0.0640283 -3.18788e-007 0.782166 -0.000588827 3.39931 -2.13858 0.0634662 1.1399e-023 0 -0 
2.14298 -11.673 80.924 117.661 -75.3762 -63.373 0.382637 -4.2754 -0.148611 0.757274 -8.55168 -0.26963 0.757275 -8.55166 -0.269629 2.52809e-005 10.8428 -1.05107e-005 -1.00497e-006 -60.6913 -1.96764e-006 30.8378 -39.4428 13.1041 -53.0801 -8.73912 -47.4018 -8.02447 -19.3758 -91.3165 -10.0151 -11.7407 24.5744 -8.80153e-007 -3.15524e-006 7.25868e-008 -1.08607e-006 9.8311e-007 7.69636e-007 -8.80153e-007 -3.15524e-006 7.25868e-008 -8.80153e-007 -3.15524e-006 7.25868e-008 -0.0146134 -8.89117e-005 6.86029e-006 -2.92845e-006 -1.62376e-006 -3.30306e-006 -8.80153e-007 -3.15524e-006 7.25868e-008 -0.0187738 -0.00118378 5.83822e-005 -8.79833e-007 -3.15523e-006 7.2078e-008 -8.80153e-007 -3.15524e-006 7.25868e-008 -0.0122967 -0.00325472 0.000677128 -8.79959e-007 -3.15519e-006 7.22617e-008 -8.80153e-007 -3.15524e-006 7.25868e-008 -1.08607e-006 9.8311e-007 7.69636e-007 -8.80153e-007 -3.15524e-006 7.25868e-008 -30.9458 -39.5431 -12.5471 53.0639 -8.64548 47.279 8.01898 -19.3277 91.7525 9.32847 -11.5896 -25.3111 1.53779e-006 -2.5186e-006 -4.98398e-007 1.53779e-006 -2.5186e-006 -4.98398e-007 -3.85785e-007 1.26729e-006 -3.34115e-006 1.53779e-006 -2.5186e-006 -4.98398e-007 0.0149898 -9.60736e-005 -3.63627e-006 -3.85957e-007 1.26686e-006 -3.34131e-006 1.53779e-006 -2.5186e-006 -4.98398e-007 0.0189933 -0.00119574 -6.20164e-005 -3.86034e-007 1.26675e-006 -3.34135e-006 1.53779e-006 -2.5186e-006 -4.98398e-007 0.0122562 -0.0032475 -0.000674615 -3.86025e-007 1.26697e-006 -3.34127e-006 1.53779e-006 -2.5186e-006 -4.98398e-007 1.53779e-006 -2.5186e-006 -4.98398e-007 -3.85785e-007 1.26729e-006 -3.34115e-006 -2.94657 -0.589372 -4.45099 -162.389 72.318 158.171 -4.11505 59.3446 -7.78798 -5.42162e-007 -1.48519e-007 -4.91912e-007 4.9717 -2.68065 4.41498 161.239 73.3288 -157.987 6.06083 58.7901 6.30131 -7.94216e-007 1.72649e-007 9.88619e-007 
0.492516 -6.67929 75.5276 -90.3963 -89.7304 89.3514 0.359008 -3.86996 -0.133588 0.711391 -7.74067 -0.243642 0.711391 -7.74069 -0.243642 1.20257e-005 10.7292 -6.91628e-006 -4.76267e-007 -59.4752 -4.07147e-007 28.3301 -37.0889 12.1871 -48.9412 -8.61684 -44.0869 -6.9975 -24.2572 -88.7703 -9.65488 -11.0712 22.8183 -1.16584e-006 -1.259e-006 1.74998e-006 -1.17685e-006 9.33018e-007 7.21349e-007 -1.17685e-006 9.33018e-007 7.21349e-007 -1.16584e-006 -1.259e-006 1.74998e-006 -0.0146071 -8.74538e-005 1.57345e-006 -1.18944e-006 3.12507e-006 -3.06887e-007 -1.16584e-006 -1.259e-006 1.74998e-006 -0.0187512 -0.00117826 5.97735e-005 -1.1769e-006 9.32897e-007 7.21514e-007 -1.16584e-006 -1.259e-006 1.74998e-006 -0.0122363 -0.00324177 0.000672071 -1.17686e-006 9.32937e-007 7.21484e-007 -1.16584e-006 -1.259e-006 1.74998e-006 -1.17685e-006 9.33018e-007 7.21349e-007 -1.17685e-006 9.33018e-007 7.21349e-007 -28.458 -37.176 -11.6835 48.9325 -8.52149 43.9734 7.03619 -24.263 89.2934 9.02104 -10.9377 -23.5042 -3.18055e-015 3.49116e-015 -9.93923e-016 3.18055e-015 2.98177e-016 3.72721e-015 1.14413e-006 9.83911e-007 -6.97534e-007 -3.18055e-015 3.49116e-015 -9.93923e-016 0.0149969 -9.55936e-005 -4.16766e-006 1.14418e-006 9.8382e-007 -6.97663e-007 -3.18055e-015 3.49116e-015 -9.93923e-016 0.0189863 -0.00119171 -5.39884e-005 1.14419e-006 9.83792e-007 -6.97709e-007 -3.18055e-015 3.49116e-015 -9.93923e-016 0.0122752 -0.00324813 -0.00067873 1.14415e-006 9.83832e-007 -6.97674e-007 -3.18055e-015 3.49116e-015 -9.93923e-016 3.18055e-015 2.98177e-016 3.72721e-015 1.14413e-006 9.83911e-007 -6.97534e-007 -2.54154 -0.442429 -3.90883 -152.605 79.0325 149.131 -5.20786 54.9184 -6.23723 -1.07471e-006 -1.39585e-007 -6.78468e-007 4.42383 -2.37925 3.90074 150.39 79.9688 -147.795 6.80563 54.3938 5.03927 7.94942e-007 -1.00901e-007 -5.1272e-007 
0.492516 -6.67929 75.5276 -90.3963 -89.7304 89.3514 0.359524 -3.76632 -0.132984 0.712581 -7.53342 -0.243009 0.712581 -7.53339 -0.24301 9.69868e-006 11.3215 -8.10316e-006 9.81109e-008 -62.273 3.15762e-007 28.6499 -37.3292 12.5905 -48.9412 -8.61684 -44.0869 -6.99751 -24.2572 -88.7702 -9.65487 -11.0712 22.8183 -2.35335e-006 1.86894e-006 1.44281e-006 -6.92268e-007 -3.28782e-006 2.01795e-008 -1.17668e-006 9.34472e-007 7.21406e-007 -2.35335e-006 1.86894e-006 1.44281e-006 -0.0146003 -8.85636e-005 -7.25295e-007 -1.17672e-006 9.3438e-007 7.21526e-007 -2.35335e-006 1.86894e-006 1.44281e-006 -0.0187744 -0.00117555 6.52703e-005 -1.15683e-006 -1.27254e-006 1.73038e-006 -2.35335e-006 1.86894e-006 1.44281e-006 -0.0122562 -0.00324518 0.000675009 -1.17669e-006 9.34391e-007 7.21541e-007 -2.35335e-006 1.86894e-006 1.44281e-006 -6.92268e-007 -3.28782e-006 2.01795e-008 -1.17668e-006 9.34472e-007 7.21406e-007 -28.7774 -37.4188 -12.086 48.9325 -8.52149 43.9734 7.03619 -24.263 89.2934 9.02104 -10.9377 -23.5042 -1.46097e-006 -5.24395e-006 1.31955e-006 -8.26846e-007 3.27319e-006 7.57267e-008 -1.46097e-006 -5.24395e-006 1.31955e-006 -1.46097e-006 -5.24395e-006 1.31955e-006 0.015022 -8.72676e-005 -1.85621e-006 -1.86959e-006 -3.03458e-006 2.10553e-006 -1.46097e-006 -5.24395e-006 1.31955e-006 0.0189987 -0.00119042 -5.80994e-005 -1.86924e-006 -3.0346e-006 2.10565e-006 -1.46097e-006 -5.24395e-006 1.31955e-006 0.0122918 -0.00325372 -0.000673627 -1.46118e-006 -5.24374e-006 1.32017e-006 -1.46097e-006 -5.24395e-006 1.31955e-006 -8.26846e-007 3.27319e-006 7.57267e-008 -1.46097e-006 -5.24395e-006 1.31955e-006 -2.54154 -0.442429 -3.90883 -152.605 79.0325 149.131 -5.20786 54.9184 -6.23723 -1.07471e-006 -1.39585e-007 -6.78468e-007 4.42383 -2.37925 3.90074 150.39 79.9688 -147.795 6.80563 54.3938 5.03927 8.61731e-007 -9.86196e-008 -1.45631e-006 
0.492516 -6.67929 75.5276 -90.3963 -89.7304 89.3514 0.360012 -3.66258 -0.132367 0.71372 -7.3259 -0.242365 0.71372 -7.32589 -0.242365 -4.32357e-008 11.9134 -2.73026e-007 -9.97237e-007 -65.0861 -9.25277e-007 28.9729 -37.5677 12.9969 -48.9412 -8.61685 -44.0869 -6.99751 -24.2572 -88.7702 -9.65486 -11.0712 22.8183 2.35302e-006 -1.87181e-006 -1.44294e-006 1.17651e-006 -9.35907e-007 -7.2147e-007 -1.17651e-006 9.35907e-007 7.2147e-007 2.35302e-006 -1.87181e-006 -1.44294e-006 -0.0145984 -8.91125e-005 -2.83157e-006 -1.17655e-006 9.35815e-007 7.2159e-007 2.35302e-006 -1.87181e-006 -1.44294e-006 -0.0187734 -0.00117854 6.21065e-005 -1.17656e-006 9.35786e-007 7.21635e-007 2.35302e-006 -1.87181e-006 -1.44294e-006 -0.0122593 -0.00323914 0.000675993 -1.17652e-006 9.35826e-007 7.21605e-007 2.35302e-006 -1.87181e-006 -1.44294e-006 1.17651e-006 -9.35907e-007 -7.2147e-007 -1.17651e-006 9.35907e-007 7.2147e-007 -29.1 -37.6598 -12.4916 48.9325 -8.52149 43.9734 7.03618 -24.263 89.2933 9.02105 -10.9377 -23.5042 -8.82566e-032 2.90723e-015 1.73937e-015 -3.18055e-015 -3.94463e-015 1.71452e-015 -9.54166e-015 -7.64079e-016 -3.03147e-015 -8.82566e-032 2.90723e-015 1.73937e-015 0.0149765 -8.99734e-005 3.7702e-007 3.18055e-015 -7.44821e-015 1.68967e-015 -8.82566e-032 2.90723e-015 1.73937e-015 0.0189999 -0.00118991 -6.63579e-005 4.00585e-007 -2.22369e-006 -7.65289e-007 -8.82566e-032 2.90723e-015 1.73937e-015 0.0122622 -0.00324497 -0.000674639 9.54166e-015 -4.67144e-015 4.36084e-015 -8.82566e-032 2.90723e-015 1.73937e-015 -3.18055e-015 -3.94463e-015 1.71452e-015 -9.54166e-015 -7.64079e-016 -3.03147e-015 -2.54153 -0.442414 -3.90882 -152.605 79.0324 149.131 -5.20786 54.9184 -6.23724 1.88153e-007 3.93846e-009 -1.88526e-006 4.42383 -2.37925 3.90074 150.39 79.9688 -147.795 6.80563 54.3938 5.03927 8.61731e-007 -9.86196e-008 -1.45631e-006 
0.492516 -6.67929 75.5276 -90.3963 -89.7304 89.3514 0.360476 -3.55874 -0.131747 0.71481 -7.11823 -0.241711 0.714809 -7.11822 -0.24171 7.58039e-006 12.507 -2.75065e-006 2.86589e-007 -67.9112 4.40754e-007 29.299 -37.8044 13.4064 -48.9412 -8.61684 -44.0869 -6.99751 -24.2572 -88.7702 -9.65486 -11.0712 22.8183 -3.05099e-006 -1.41537e-006 1.4502e-006 -3.52903e-006 2.81197e-006 2.16462e-006 1.17634e-006 -9.37322e-007 -7.21541e-007 -3.05099e-006 -1.41537e-006 1.4502e-006 -0.0145965 -8.44286e-005 -3.23114e-006 1.17639e-006 -9.3723e-007 -7.21662e-007 -3.05099e-006 -1.41537e-006 1.4502e-006 -0.0187378 -0.00117832 6.27875e-005 1.1764e-006 -9.37201e-007 -7.21707e-007 -3.05099e-006 -1.41537e-006 1.4502e-006 -0.0122873 -0.0032456 0.000681416 1.17636e-006 -9.37242e-007 -7.21677e-007 -3.05099e-006 -1.41537e-006 1.4502e-006 -3.52903e-006 2.81197e-006 2.16462e-006 1.17634e-006 -9.37322e-007 -7.21541e-007 -29.4259 -37.899 -12.9003 48.9325 -8.52149 43.9734 7.03619 -24.263 89.2934 9.02105 -10.9377 -23.5042 8.33014e-007 -3.2752e-006 -6.2429e-008 2.80951e-006 -5.56215e-006 -8.22735e-007 8.33014e-007 -3.2752e-006 -6.2429e-008 8.33014e-007 -3.2752e-006 -6.2429e-008 0.0149976 -9.77094e-005 -8.55375e-006 8.32782e-007 -3.27521e-006 -6.20009e-008 8.33014e-007 -3.2752e-006 -6.2429e-008 0.0189946 -0.0011908 -6.18233e-005 8.32721e-007 -3.27519e-006 -6.18938e-008 8.33014e-007 -3.2752e-006 -6.2429e-008 0.0122602 -0.00324696 -0.000666067 8.32841e-007 -3.27515e-006 -6.20919e-008 8.33014e-007 -3.2752e-006 -6.2429e-008 2.80951e-006 -5.56215e-006 -8.22735e-007 8.33014e-007 -3.2752e-006 -6.2429e-008 -2.54154 -0.442429 -3.90883 -152.605 79.0325 149.131 -5.20786 54.9184 -6.23723 -1.07471e-006 -1.39585e-007 -6.78468e-007 4.42383 -2.37925 3.90074 150.39 79.9688 -147.795 6.80563 54.3938 5.03927 8.61731e-007 -9.86196e-008 -1.45631e-006 
